<svg xmlns="http://www.w3.org/2000/svg" viewBox="0 0 56 32.5" x="0px" y="0px"><title>Keyboard</title><g data-name="Layer 2"><g data-name="Layer 1"><path d="M52,2V6H46V2h6M41,2V6H35V2h6M30,2V6H24V2h6M19,2V6H13V2h6M8,2V6H2V2H8m38,9v4H40V11h6M35,11v4H29V11h6M24,11v4H18V11h6M13,11v4H7V11h6m41,9v4H48V20h6M43,20v4H15V20H43M10,20v4H4V20h6M52,0H46a2,2,0,0,0-2,2V6a2,2,0,0,0,2,2h6a2,2,0,0,0,2-2V2a2,2,0,0,0-2-2ZM41,0H35a2,2,0,0,0-2,2V6a2,2,0,0,0,2,2h6a2,2,0,0,0,2-2V2a2,2,0,0,0-2-2ZM30,0H24a2,2,0,0,0-2,2V6a2,2,0,0,0,2,2h6a2,2,0,0,0,2-2V2a2,2,0,0,0-2-2ZM19,0H13a2,2,0,0,0-2,2V6a2,2,0,0,0,2,2h6a2,2,0,0,0,2-2V2a2,2,0,0,0-2-2ZM8,0H2A2,2,0,0,0,0,2V6A2,2,0,0,0,2,8H8a2,2,0,0,0,2-2V2A2,2,0,0,0,8,0ZM46,9H40a2,2,0,0,0-2,2v4a2,2,0,0,0,2,2h6a2,2,0,0,0,2-2V11a2,2,0,0,0-2-2ZM35,9H29a2,2,0,0,0-2,2v4a2,2,0,0,0,2,2h6a2,2,0,0,0,2-2V11a2,2,0,0,0-2-2ZM24,9H18a2,2,0,0,0-2,2v4a2,2,0,0,0,2,2h6a2,2,0,0,0,2-2V11a2,2,0,0,0-2-2ZM13,9H7a2,2,0,0,0-2,2v4a2,2,0,0,0,2,2h6a2,2,0,0,0,2-2V11a2,2,0,0,0-2-2Zm41,9H48a2,2,0,0,0-2,2v4a2,2,0,0,0,2,2h6a2,2,0,0,0,2-2V20a2,2,0,0,0-2-2ZM43,18H15a2,2,0,0,0-2,2v4a2,2,0,0,0,2,2H43a2,2,0,0,0,2-2V20a2,2,0,0,0-2-2ZM10,18H4a2,2,0,0,0-2,2v4a2,2,0,0,0,2,2h6a2,2,0,0,0,2-2V20a2,2,0,0,0-2-2Z"/></g></g><text x="0" y="41" fill="#000000" font-size="5px" font-weight="bold" font-family="'Helvetica Neue', Helvetica, Arial-Unicode, Arial, Sans-serif">Created by Thomas Radwanski</text><text x="0" y="46" fill="#000000" font-size="5px" font-weight="bold" font-family="'Helvetica Neue', Helvetica, Arial-Unicode, Arial, Sans-serif">from the Noun Project</text></svg>